<?xml version="1.0" standalone="no"?>
<!DOCTYPE svg PUBLIC "-//W3C//DTD SVG 20010904//EN"
 "http://www.w3.org/TR/2001/REC-SVG-20010904/DTD/svg10.dtd">
<svg version="1.0" xmlns="http://www.w3.org/2000/svg"
 width="851.000000pt" height="851.000000pt" viewBox="0 0 851.000000 851.000000"
 preserveAspectRatio="xMidYMid meet">
<metadata>
Created by potrace 1.14, written by Peter Selinger 2001-2017
</metadata>
<g transform="translate(0.000000,851.000000) scale(0.100000,-0.100000)"
fill="#000000" stroke="none">
<path d="M3888 7854 c-3 -2 -53 -6 -112 -9 -59 -3 -126 -8 -149 -10 -23 -3
-71 -7 -107 -10 -36 -4 -78 -9 -95 -11 -38 -7 -60 -10 -138 -19 -34 -4 -71 -9
-82 -11 -20 -4 -58 -11 -105 -19 -60 -10 -131 -25 -220 -45 -52 -12 -104 -23
-115 -25 -89 -14 -461 -138 -573 -190 -29 -14 -57 -25 -63 -25 -6 0 -23 -8
-37 -19 -15 -10 -38 -22 -51 -26 -26 -8 -193 -103 -201 -115 -3 -4 -10 -9 -17
-11 -28 -9 -173 -133 -223 -191 -72 -83 -141 -152 -214 -213 -33 -27 -64 -55
-70 -60 -6 -6 -90 -77 -186 -160 -96 -82 -186 -159 -200 -171 -14 -13 -77 -66
-140 -120 -63 -53 -117 -100 -120 -103 -3 -3 -66 -58 -140 -121 -74 -62 -146
-124 -160 -136 -14 -13 -71 -62 -127 -110 -57 -47 -103 -93 -103 -100 0 -8 -4
-14 -10 -14 -5 0 -10 -8 -10 -18 0 -10 -4 -22 -9 -28 -6 -7 -50 -126 -56 -154
-1 -3 -6 -23 -13 -45 -6 -22 -14 -58 -17 -80 -3 -22 -10 -62 -15 -90 -8 -51
-6 -305 3 -360 15 -84 20 -106 38 -178 20 -80 50 -169 74 -222 8 -16 26 -57
41 -90 36 -82 133 -250 214 -370 82 -122 103 -162 94 -177 -4 -6 4 -21 18 -32
53 -44 343 -291 348 -296 3 -3 64 -55 135 -115 72 -60 141 -120 155 -131 14
-12 93 -79 175 -149 220 -186 247 -209 259 -220 6 -5 54 -46 106 -90 52 -44
100 -84 106 -90 6 -5 35 -30 64 -54 29 -25 58 -50 64 -56 6 -6 34 -28 61 -50
28 -21 55 -44 60 -50 6 -5 37 -33 70 -60 33 -28 65 -54 71 -60 6 -5 32 -28 58
-50 27 -22 58 -49 70 -60 12 -11 46 -40 76 -65 30 -25 74 -62 99 -84 25 -21
68 -57 95 -80 27 -22 70 -59 96 -81 25 -22 68 -58 94 -80 27 -22 53 -44 60
-50 6 -5 40 -35 76 -65 36 -30 67 -57 70 -60 3 -3 77 -66 165 -140 88 -74 162
-137 165 -140 3 -3 45 -39 95 -80 49 -41 96 -82 105 -90 9 -8 54 -46 100 -85
45 -38 88 -75 94 -80 6 -6 36 -30 66 -55 30 -25 60 -50 65 -56 6 -6 37 -33 70
-60 33 -27 62 -51 65 -54 3 -3 48 -41 100 -86 52 -44 127 -106 165 -139 39
-33 69 -63 67 -68 -4 -15 51 -52 78 -52 15 0 27 7 30 18 5 15 331 345 2378
2405 348 350 638 636 643 634 11 -3 219 134 314 206 246 188 486 447 591 637
119 218 162 326 182 465 9 60 8 261 -2 330 -7 55 -41 201 -53 230 -3 8 -7 17
-8 20 -11 46 -60 175 -100 263 -17 40 -22 63 -16 74 7 13 -9 30 -78 82 -47 36
-97 74 -111 83 -60 42 -114 80 -126 91 -7 7 -29 23 -49 37 -20 14 -48 34 -63
46 -30 23 -528 388 -571 419 -16 11 -51 35 -77 54 -27 19 -62 45 -79 58 -44
34 -41 32 -156 116 -59 42 -114 87 -122 100 -21 31 -137 147 -177 177 -18 14
-46 35 -61 48 -15 12 -31 22 -37 22 -6 0 -12 4 -14 8 -5 13 -187 117 -278 160
-76 35 -137 61 -263 108 -139 52 -474 144 -612 168 -16 2 -68 12 -115 20 -93
16 -143 24 -205 33 -22 2 -51 7 -65 9 -14 2 -54 6 -90 9 -36 4 -76 8 -90 11
-14 2 -59 7 -100 10 -41 3 -95 8 -120 10 -62 6 -767 13 -772 8z"/>
</g>
</svg>
